<svg width="77.095mm" height="16.497mm" version="1.1" viewBox="0 0 77.095 16.497" xml:space="preserve" xmlns="http://www.w3.org/2000/svg"><path d="m9.8487 7.9437q0 1.1811-0.34289 2.1717-0.34289 0.97153-0.99058 1.6764-0.64769 0.68579-1.5621 1.0668-0.89534 0.38099-2.0193 0.38099-1.1049 0-2.0193-0.38099-0.89534-0.38099-1.543-1.0668-0.64769-0.70484-1.0096-1.6764-0.36194-0.99058-0.36194-2.1717t0.36194-2.1526q0.38099-0.97153 1.0287-1.6573 0.66674-0.68579 1.5621-1.0668 0.91439-0.38099 1.9812-0.38099 1.0858 0 1.9812 0.38099 0.91439 0.38099 1.5621 1.0668t1.0096 1.6573 0.36194 2.1526zm-2.8956 0q0-1.3144-0.53339-2.0574-0.51434-0.76199-1.4859-0.76199t-1.5049 0.76199q-0.53339 0.74294-0.53339 2.0574 0 1.3144 0.53339 2.0955 0.53339 0.76199 1.5049 0.76199t1.4859-0.76199q0.53339-0.78104 0.53339-2.0955zm7.5437 5.0291q-0.97154-1.905-1.9812-4.4576-0.99058-2.5527-1.8859-5.5625h3.0099q0.1905 0.74294 0.43814 1.6192 0.2667 0.85724 0.53339 1.7526 0.28575 0.87629 0.55244 1.7145 0.28575 0.83819 0.55244 1.524 0.24765-0.68579 0.53339-1.524 0.28575-0.83819 0.55244-1.7145 0.28575-0.89534 0.53339-1.7526 0.2667-0.87629 0.45719-1.6192h2.9337q-0.89534 3.0099-1.905 5.5625-0.99058 2.5527-1.9621 4.4576zm22.936-7.5056q-0.38099-0.095248-0.89534-0.1905-0.51434-0.1143-1.1049-0.1143-0.2667 0-0.64769 0.057149-0.36194 0.038099-0.55244 0.095249v7.658h-2.8384v-9.4868q0.76199-0.2667 1.7907-0.49529 1.0477-0.24765 2.3241-0.24765 0.2286 0 0.55244 0.038099 0.32384 0.01905 0.64769 0.076199 0.32384 0.038099 0.64769 0.1143 0.32384 0.057149 0.55244 0.1524zm8.42 2.5717q0-1.3144-0.59054-2.0955-0.59054-0.80009-1.7526-0.80009-0.38099 0-0.70484 0.038099-0.32384 0.01905-0.53339 0.057149v5.1244q0.2667 0.17145 0.68579 0.28574 0.43814 0.1143 0.87629 0.1143 2.0193 0 2.0193-2.7241zm2.8956-0.076199q0 1.162-0.28574 2.1145-0.28575 0.95248-0.83819 1.6383-0.55244 0.68579-1.3716 1.0668-0.81914 0.38099-1.8859 0.38099-0.59054 0-1.1049-0.1143-0.51434-0.1143-0.99058-0.32384v3.7718h-2.8384v-13.201q0.38099-0.1143 0.87629-0.20955 0.49529-0.1143 1.0287-0.1905 0.55244-0.076199 1.1049-0.1143 0.57149-0.057149 1.0858-0.057149 1.2382 0 2.2098 0.38099 0.97153 0.36194 1.6383 1.0477 0.66674 0.66674 1.0096 1.6383 0.36194 0.97153 0.36194 2.1717zm11.563-0.01905q0 1.1811-0.3429 2.1717-0.34289 0.97153-0.99058 1.6764-0.64769 0.68579-1.5621 1.0668-0.89534 0.38099-2.0193 0.38099-1.1049 0-2.0193-0.38099-0.89534-0.38099-1.543-1.0668-0.64769-0.70484-1.0096-1.6764-0.36194-0.99058-0.36194-2.1717t0.36194-2.1526q0.38099-0.97153 1.0287-1.6573 0.66674-0.68579 1.5621-1.0668 0.91439-0.38099 1.9812-0.38099 1.0858 0 1.9812 0.38099 0.91439 0.38099 1.5621 1.0668 0.64769 0.68579 1.0096 1.6573 0.36194 0.97153 0.36194 2.1526zm-2.8956 0q0-1.3144-0.53339-2.0574-0.51434-0.76199-1.4859-0.76199-0.97153 0-1.5049 0.76199-0.53339 0.74294-0.53339 2.0574 0 1.3144 0.53339 2.0955 0.53339 0.76199 1.5049 0.76199 0.97154 0 1.4859-0.76199 0.53339-0.78104 0.53339-2.0955zm11.125-2.4765q-0.38099-0.095248-0.89534-0.1905-0.51434-0.1143-1.1049-0.1143-0.2667 0-0.64769 0.057149-0.36194 0.038099-0.55244 0.095249v7.658h-2.8384v-9.4868q0.76199-0.2667 1.7907-0.49529 1.0477-0.24765 2.3241-0.24765 0.2286 0 0.55244 0.038099 0.32384 0.01905 0.64769 0.076199 0.32384 0.038099 0.64769 0.1143 0.32384 0.057149 0.55244 0.1524zm1.905-5.0101 2.8384-0.45719v2.9527h3.4099v2.3622h-3.4099v3.5242q0 0.89534 0.3048 1.4287 0.32384 0.53339 1.2763 0.53339 0.45719 0 0.93344-0.0762 0.49529-0.09525 0.89534-0.24765l0.40004 2.2098q-0.51434 0.20955-1.143 0.36194-0.62864 0.1524-1.543 0.1524-1.162 0-1.924-0.3048-0.76199-0.32384-1.2192-0.87628-0.45719-0.57149-0.64769-1.3716-0.17145-0.80009-0.17145-1.7716z" stroke-width=".26458" aria-label="ov  rport"/><path d="m29.849 2.4418c0.23377 0.13497 0.29456 0.44614 0.1262 0.66062l-3.046 3.8875 2.3377 1.3497c0.58776 0.33934-0.06881 0.62819-0.09373 0.64052-1.7015 1.0036-4.2364 2.4789-7.6029 4.4536-0.13619 0.08166-0.31221 0.078-0.44579 8.86e-4 -0.23377-0.13497-0.29456-0.44614-0.1262-0.66063l3.046-3.8875-2.3444-1.3535c-0.26717-0.15425-0.34084-0.36598-0.01266-0.59507 4.4109-2.5651 6.9784-4.0661 7.716-4.4952 0.13619-0.08166 0.30552-0.08186 0.44579-8.85e-4z" stroke-width=".77121"/></svg>
